<?xml version="1.0" encoding="UTF-8" standalone="no"?>
<svg
   class="feather feather-database"
   fill="none"
   height="24"
   stroke="currentColor"
   stroke-linecap="round"
   stroke-linejoin="round"
   stroke-width="2"
   viewBox="0 0 24 24"
   width="24"
   version="1.1"
   id="svg2"
   sodipodi:docname="database-white.svg"
   inkscape:version="1.3.2 (091e20e, 2023-11-25, custom)"
   xmlns:inkscape="http://www.inkscape.org/namespaces/inkscape"
   xmlns:sodipodi="http://sodipodi.sourceforge.net/DTD/sodipodi-0.dtd"
   xmlns="http://www.w3.org/2000/svg"
   xmlns:svg="http://www.w3.org/2000/svg">
  <defs
     id="defs2" />
  <sodipodi:namedview
     id="namedview2"
     pagecolor="#505050"
     bordercolor="#eeeeee"
     borderopacity="1"
     inkscape:showpageshadow="0"
     inkscape:pageopacity="0"
     inkscape:pagecheckerboard="0"
     inkscape:deskcolor="#505050"
     inkscape:zoom="33.875"
     inkscape:cx="11.98524"
     inkscape:cy="12"
     inkscape:window-width="1920"
     inkscape:window-height="1009"
     inkscape:window-x="-8"
     inkscape:window-y="-8"
     inkscape:window-maximized="1"
     inkscape:current-layer="svg2" />
  <ellipse
     cx="12"
     cy="5"
     rx="9"
     ry="3"
     id="ellipse1" />
  <path
     d="M21 12c0 1.66-4 3-9 3s-9-1.34-9-3"
     id="path1" />
  <path
     d="M3 5v14c0 1.66 4 3 9 3s9-1.34 9-3V5"
     id="path2" />
  <path
     style="fill:#ffffff;stroke-width:0.0590406"
     d="M 11.232472,22.978609 C 7.3960342,22.844903 4.3851572,22.05699 2.9374581,20.807898 2.5255307,20.452481 2.1962075,19.947905 2.0802503,19.494517 2.023223,19.271542 2.0221402,19.13189 2.0221402,12 c 0,-7.0852322 0.00143,-7.2728951 0.057029,-7.4902896 C 2.3252429,3.5475714 3.2225953,2.7629647 4.7822878,2.1462187 8.5927023,0.63947439 15.393918,0.63972924 19.217712,2.1467596 c 1.558066,0.6140637 2.456749,1.3996534 2.703119,2.3629508 0.0556,0.2173945 0.05703,0.4050574 0.05703,7.4902896 0,7.080589 -0.0015,7.273027 -0.05692,7.489877 -0.11815,0.461962 -0.441306,0.958152 -0.858394,1.318021 -1.32711,1.145046 -4.008286,1.916459 -7.394645,2.127545 -0.520053,0.03242 -1.994163,0.05854 -2.435425,0.04317 z m 2.635484,-2.03309 c 1.498117,-0.114883 2.718421,-0.319399 3.802001,-0.637192 1.105253,-0.32415 1.974581,-0.767884 2.258619,-1.152876 L 20,19.05864 v -2.267327 c 0,-1.24703 -0.0071,-2.267328 -0.01574,-2.267328 -0.0087,0 -0.08126,0.0332 -0.161328,0.07377 -1.144129,0.579774 -3.223126,1.081293 -5.254665,1.267588 -1.634754,0.149909 -3.501778,0.149909 -5.1365317,0 C 7.4175696,15.680645 5.33135,15.180297 4.205291,14.611864 4.1095431,14.563531 4.0241831,14.523985 4.015602,14.523985 4.0070209,14.523985 4,15.544283 4,16.791313 v 2.267327 l 0.071424,0.09681 c 0.2663498,0.361016 1.0748812,0.78803 2.0835572,1.100398 1.3216798,0.409299 2.929567,0.652342 4.9298898,0.745185 0.474069,0.022 2.2286,-0.01299 2.783085,-0.05551 z m -0.214819,-6.983638 c 2.19742,-0.149837 4.068094,-0.547663 5.278043,-1.122453 0.446656,-0.212185 0.715152,-0.388141 0.91546,-0.599937 L 20,12.077335 V 9.8025051 c 0,-1.2511563 -0.0052,-2.2748298 -0.01149,-2.2748298 -0.0063,0 -0.162408,0.067267 -0.346863,0.1494831 C 18.48656,8.1920044 17.022993,8.5644531 15.306273,8.7804248 14.064705,8.9366202 13.658824,8.9584782 12,8.9584782 c -1.658824,0 -2.0647052,-0.021858 -3.3062731,-0.1780534 C 6.9770069,8.5644531 5.5134397,8.1920044 4.3583533,7.6771584 4.1738978,7.5949426 4.0178092,7.5276753 4.0114898,7.5276753 4.0051704,7.5276753 4,8.5513488 4,9.8025051 v 2.2748299 l 0.1533604,0.162156 c 0.2003076,0.211796 0.4688034,0.387752 0.9154597,0.599937 1.3699687,0.650808 3.5637981,1.068489 6.1193719,1.165059 0.42918,0.01622 2.000599,-0.01094 2.464945,-0.04261 z M 13.549815,6.9648537 C 16.398486,6.8002314 18.955587,6.1087599 19.814358,5.2708449 20.052412,5.0385721 20.055917,4.9854793 19.847732,4.7653538 19.655262,4.5618459 19.36852,4.372583 18.953127,4.174875 16.307061,2.915468 10.92157,2.6086636 7.0848708,3.4987559 5.6775554,3.825245 4.6020782,4.2897461 4.1522684,4.7653538 3.9609071,4.96769 3.9569999,5.0321603 4.1250495,5.2144726 4.7235106,5.8637263 6.4491962,6.4715906 8.5491793,6.7728508 10.135729,7.0004546 11.816831,7.0650016 13.549815,6.9648537 Z"
     id="path3" />
</svg>
