<?xml version="1.0" encoding="UTF-8" standalone="no"?>
<svg
   viewBox="0 0 23.63 22.64"
   version="1.1"
   id="svg2"
   sodipodi:docname="golden_source-white.svg"
   inkscape:version="1.3.2 (091e20e, 2023-11-25, custom)"
   xmlns:inkscape="http://www.inkscape.org/namespaces/inkscape"
   xmlns:sodipodi="http://sodipodi.sourceforge.net/DTD/sodipodi-0.dtd"
   xmlns="http://www.w3.org/2000/svg"
   xmlns:svg="http://www.w3.org/2000/svg">
  <defs
     id="defs2" />
  <sodipodi:namedview
     id="namedview2"
     pagecolor="#505050"
     bordercolor="#eeeeee"
     borderopacity="1"
     inkscape:showpageshadow="0"
     inkscape:pageopacity="0"
     inkscape:pagecheckerboard="0"
     inkscape:deskcolor="#505050"
     inkscape:zoom="35.909895"
     inkscape:cx="11.807331"
     inkscape:cy="11.32"
     inkscape:window-width="1920"
     inkscape:window-height="1009"
     inkscape:window-x="-8"
     inkscape:window-y="-8"
     inkscape:window-maximized="1"
     inkscape:current-layer="svg2" />
  <title
     id="title1" />
  <g
     id="Camada_2">
    <g
       id="Camada_1-2">
      <path
         d="M23.13,19.47h-.89V17.8a.55.55,0,0,0-.55-.55H20.55V7h2.59a.5.5,0,0,0,.23-.94L12.05.06a.5.5,0,0,0-.47,0L.27,6.07A.5.5,0,0,0,.5,7H3.09V17.25H1.94a.55.55,0,0,0-.55.55v1.67H.5A.5.5,0,0,0,0,20v2.17a.5.5,0,0,0,.5.5H23.13a.5.5,0,0,0,.5-.5V20A.5.5,0,0,0,23.13,19.47Zm-3.59-2.21h-.79V7h.79ZM7.86,7V17.25h-2V7Zm1,0h.79V17.25H8.86Zm1.79,0H13V17.25H10.65ZM14,7h.79V17.25H14Zm1.79,0h2V17.25h-2Zm-4-5.94L21.13,6H2.51ZM4.09,7h.79V17.25H4.09ZM2.49,18.35H21.14v1.07H2.49Zm20.14,3.29H1V20.47h.72a.55.55,0,0,0,.22,0H21.69a.55.55,0,0,0,.22,0h.72Z"
         id="path1" />
      <path
         d="M11.82,5.28A1.48,1.48,0,1,0,10.34,3.8,1.48,1.48,0,0,0,11.82,5.28Zm0-2a.48.48,0,1,1-.48.48A.48.48,0,0,1,11.82,3.32Z"
         id="path2" />
    </g>
  </g>
  <path
     style="fill:#ffffff;stroke-width:0.0278475"
     d="M 0.37695836,22.635151 C 0.23209901,22.593589 0.13659393,22.513801 0.07200877,22.380386 0.01591253,22.264506 0.01392374,22.219761 0.01392374,21.073562 c 0,-0.770849 0.01038153,-1.214314 0.02961909,-1.265231 0.0162905,-0.04312 0.06328312,-0.113973 0.10442804,-0.15746 0.14063323,-0.148637 0.18298084,-0.157637 0.74176551,-0.157637 H 1.4062976 l 6.116e-4,-0.898081 c 5.54e-4,-0.813551 0.00545,-0.908565 0.052021,-1.009471 0.062218,-0.134809 0.150377,-0.21965 0.2879843,-0.277145 0.082749,-0.03458 0.2272692,-0.0431 0.7306162,-0.0431 H 3.1049938 V 12.127577 6.9897169 L 1.7752767,6.9891054 C 0.54205383,6.9885381 0.43747636,6.9847631 0.33416973,6.9370841 0.00710907,6.7861357 -0.06187113,6.3868703 0.19846449,6.1516064 0.24247016,6.1118388 2.8451111,4.7162789 5.9821111,3.0503623 l 5.7036359,-3.02893901 0.158258,0.01313162 c 0.146265,0.01213647 0.591938,0.24314658 5.880915,3.04830819 5.329012,2.8263956 5.728292,3.0431353 5.804592,3.150882 0.150496,0.2125233 0.0891,0.5209622 -0.132957,0.6679526 l -0.111936,0.074096 -1.373552,0.00772 -1.373552,0.00772 v 5.1356943 5.135695 l 0.663497,0.0084 0.663498,0.0084 0.115682,0.07661 c 0.06363,0.04214 0.144124,0.129856 0.178888,0.194932 0.06145,0.115024 0.06344,0.143686 0.07157,1.028684 l 0.0084,0.910364 0.539672,0.0086 c 0.496452,0.0079 0.545962,0.01327 0.618204,0.06686 0.122708,0.09103 0.198609,0.224022 0.217865,0.381747 0.0097,0.07964 0.01368,0.639784 0.0088,1.24477 -0.0079,0.975638 -0.01428,1.10983 -0.05662,1.187162 -0.06477,0.118313 -0.197041,0.224946 -0.322111,0.259681 -0.141054,0.03918 -22.73116768,0.0356 -22.86785864,-0.0036 z m 22.27055664,-1.575496 0.0075,-0.591759 H 11.821808 0.98858546 v 0.598756 0.598757 l 10.82570654,-0.007 10.825707,-0.007 z m -1.497356,-2.179106 v -0.556991 l -9.335867,0.007 -9.3358665,0.007 -0.00755,0.549988 -0.00755,0.549987 H 11.806743 21.15016 Z M 4.8872323,12.127577 V 6.9897169 H 4.4834439 4.0796555 v 5.1378601 5.137859 h 0.4037884 0.4037884 z m 2.9796802,0 V 6.9897169 H 6.8504795 5.8340466 v 5.1378601 5.137859 h 1.0164329 1.016433 z m 1.8031982,-0.007 0.00704,-5.1308981 H 9.2593604 8.8415742 v 5.1386041 5.138604 l 0.4107503,-0.0077 0.4107503,-0.0077 z m 3.3485853,0.007 V 6.9897169 h -1.197442 -1.197441 v 5.1378601 5.137859 h 1.197441 1.197442 z m 1.782238,0 V 6.9897169 h -0.403788 -0.403788 v 5.1378601 5.137859 h 0.403788 0.403788 z m 3.007528,0 V 6.9897169 h -1.016433 -1.016433 v 5.1378601 5.137859 h 1.016433 1.016433 z m 1.754391,0 V 6.9897169 h -0.417712 -0.417712 v 5.1378601 5.137859 h 0.417712 0.417712 z m 1.57199,-6.1362626 c -0.04508,-0.040459 -9.313081,-4.9331102 -9.344637,-4.9331102 -0.03182,0 -9.2380593,4.8921864 -9.2825406,4.9327351 -0.014913,0.013594 4.048537,0.024116 9.3135886,0.024116 5.151768,0 9.328181,-0.010646 9.313589,-0.023741 z"
     id="path3" />
  <path
     style="fill:#ffffff;stroke-width:0.0278475"
     d="M 11.462683,5.2192403 C 10.65172,5.0011226 10.164342,4.1245167 10.427986,3.3582193 c 0.08822,-0.2564164 0.171959,-0.3884563 0.373875,-0.589529 0.293615,-0.2923881 0.61287,-0.4285079 1.006581,-0.4291717 0.639778,-0.00108 1.213747,0.4177495 1.408812,1.0280176 0.07937,0.2483189 0.07911,0.6152147 -6.14e-4,0.8672891 -0.230444,0.7286027 -1.032138,1.1785564 -1.753957,0.984415 z M 11.967979,4.2312072 C 12.304495,4.1377552 12.421428,3.6652529 12.17021,3.4140346 12.07367,3.3174996 11.865581,3.2392298 11.812263,3.279401 c -0.01803,0.013584 -0.08488,0.039578 -0.148549,0.057765 -0.137097,0.039159 -0.271643,0.1801156 -0.317262,0.3323779 -0.08095,0.2701707 0.158309,0.5756532 0.460879,0.5884536 0.03063,0.0013 0.102924,-0.01076 0.160648,-0.02679 z"
     id="path4" />
</svg>
