<?xml version="1.0" encoding="UTF-8" standalone="no"?>
<svg
   class="bi bi-file-text"
   fill="currentColor"
   height="16"
   viewBox="0 0 16 16"
   width="16"
   version="1.1"
   id="svg2"
   sodipodi:docname="local_file-white.svg"
   inkscape:version="1.3.2 (091e20e, 2023-11-25, custom)"
   xmlns:inkscape="http://www.inkscape.org/namespaces/inkscape"
   xmlns:sodipodi="http://sodipodi.sourceforge.net/DTD/sodipodi-0.dtd"
   xmlns="http://www.w3.org/2000/svg"
   xmlns:svg="http://www.w3.org/2000/svg">
  <defs
     id="defs2" />
  <sodipodi:namedview
     id="namedview2"
     pagecolor="#505050"
     bordercolor="#eeeeee"
     borderopacity="1"
     inkscape:showpageshadow="0"
     inkscape:pageopacity="0"
     inkscape:pagecheckerboard="0"
     inkscape:deskcolor="#505050"
     inkscape:zoom="50.8125"
     inkscape:cx="7.9901599"
     inkscape:cy="8"
     inkscape:window-width="1920"
     inkscape:window-height="1009"
     inkscape:window-x="-8"
     inkscape:window-y="-8"
     inkscape:window-maximized="1"
     inkscape:current-layer="svg2" />
  <path
     d="M5 4a.5.5 0 0 0 0 1h6a.5.5 0 0 0 0-1H5zm-.5 2.5A.5.5 0 0 1 5 6h6a.5.5 0 0 1 0 1H5a.5.5 0 0 1-.5-.5zM5 8a.5.5 0 0 0 0 1h6a.5.5 0 0 0 0-1H5zm0 2a.5.5 0 0 0 0 1h3a.5.5 0 0 0 0-1H5z"
     id="path1" />
  <path
     d="M2 2a2 2 0 0 1 2-2h8a2 2 0 0 1 2 2v12a2 2 0 0 1-2 2H4a2 2 0 0 1-2-2V2zm10-1H4a1 1 0 0 0-1 1v12a1 1 0 0 0 1 1h8a1 1 0 0 0 1-1V2a1 1 0 0 0-1-1z"
     id="path2" />
  <path
     style="fill:#ffffff;stroke-width:0.0196802"
     d="M 3.8246115,15.97934 C 3.0030891,15.906225 2.3377028,15.354211 2.0822193,14.533825 L 2.0270603,14.356704 V 8 1.6432964 L 2.0822193,1.4661747 C 2.2660099,0.87600297 2.6454817,0.4358329 3.185629,0.18626948 3.3784401,0.09718527 3.5991636,0.04238872 3.8573186,0.01951661 c 0.2913375,-0.02581203 7.9940254,-0.02581203 8.2853624,0 0.258155,0.02287211 0.478879,0.07766866 0.67169,0.16675287 0.540147,0.24956342 0.919619,0.68973349 1.10341,1.27990522 l 0.05516,0.1771217 V 8 14.356704 l -0.05516,0.177121 c -0.14922,0.47916 -0.427726,0.860583 -0.817661,1.119811 -0.292967,0.194764 -0.582597,0.293637 -0.957439,0.326847 -0.257678,0.02283 -8.0607567,0.02176 -8.3180695,-0.0011 z m 8.4853515,-1.017011 c 0.320485,-0.109788 0.564281,-0.361563 0.662659,-0.684346 0.03454,-0.113317 0.03599,-0.366626 0.03599,-6.277983 0,-5.9213479 -0.0014,-6.1644745 -0.03615,-6.2779828 C 12.869581,1.3859233 12.616537,1.1328795 12.280443,1.0299963 12.16745,0.99540741 11.983013,0.99384994 8,0.99384994 c -3.983013,0 -4.1674495,0.001557 -4.2804428,0.0361464 C 3.3834633,1.1328795 3.1304195,1.3859233 3.0275363,1.7220172 2.9927897,1.8355255 2.9913899,2.0786521 2.9913899,8 c 0,5.921348 0.0014,6.164474 0.036146,6.277983 0.1165132,0.38062 0.4214509,0.651633 0.8062076,0.716516 0.05671,0.0096 1.9396042,0.016 4.2252967,0.01445 l 4.1230018,-0.0028 z"
     id="path3" />
  <path
     style="fill:#ffffff;stroke-width:0.0196802"
     d="m 4.8015313,10.944727 c -0.1767281,-0.08028 -0.2840617,-0.248556 -0.2840617,-0.445342 0,-0.14388 0.044789,-0.24838 0.1493111,-0.348363 0.1478309,-0.14141 0.043578,-0.133802 1.8333634,-0.133802 h 1.6108792 l 0.1067149,0.05412 c 0.3107142,0.157579 0.3643833,0.563489 0.1046557,0.791533 -0.1420058,0.124683 -0.050058,0.118717 -1.8223768,0.118244 -1.5257342,-4.08e-4 -1.6239034,-0.0025 -1.6984858,-0.03639 z"
     id="path4" />
  <path
     style="fill:#ffffff;stroke-width:0.0196802"
     d="M 4.8511685,8.9636097 C 4.5274159,8.8630825 4.4085469,8.444993 4.6301206,8.186134 4.6674301,8.1425462 4.7346429,8.0872628 4.7794823,8.0632818 l 0.081526,-0.043602 H 8 11.138991 l 0.07872,0.042478 c 0.3863,0.2084489 0.337399,0.7789927 -0.07737,0.9027366 -0.141786,0.042301 -6.1527549,0.041073 -6.2891705,-0.00129 z"
     id="path5" />
  <path
     style="fill:#ffffff;stroke-width:0.0196802"
     d="M 4.8357208,6.9617364 C 4.7429495,6.9320097 4.6057069,6.803859 4.5554416,6.7000247 4.4921622,6.5693069 4.5053319,6.3780084 4.5866906,6.2461136 4.6533496,6.1380493 4.8039969,6.0350844 4.9246127,6.0151496 c 0.096891,-0.016014 6.0538833,-0.016014 6.1507743,0 0.120616,0.019935 0.271263,0.1228997 0.337922,0.230964 0.08136,0.1318948 0.09453,0.3231933 0.03125,0.4539111 -0.05328,0.1100574 -0.188987,0.2324598 -0.291925,0.2633009 -0.103841,0.031111 -6.2196616,0.029573 -6.3169122,-0.00159 z"
     id="path6" />
  <path
     style="fill:#ffffff;stroke-width:0.0196802"
     d="M 4.905872,4.9800194 C 4.7890112,4.9573165 4.6520824,4.8606664 4.5865041,4.7545962 4.5053344,4.6233071 4.4922149,4.4318143 4.5554416,4.3012053 4.6087195,4.1911479 4.7444289,4.0687455 4.8473671,4.0379044 c 0.111177,-0.033309 6.1940889,-0.033309 6.3052659,0 0.102938,0.030841 0.238647,0.1532435 0.291925,0.2633009 0.06328,0.1307178 0.05011,0.3220163 -0.03125,0.4539111 -0.07098,0.1150667 -0.221029,0.212668 -0.355231,0.2310625 -0.126958,0.017402 -6.0615114,0.01146 -6.152206,-0.00616 z"
     id="path7" />
</svg>
