<?xml version="1.0" encoding="UTF-8" standalone="no"?>
<svg
   height="48"
   viewBox="0 0 48 48"
   width="48"
   version="1.1"
   id="svg2"
   sodipodi:docname="transform-white.svg"
   inkscape:version="1.3.2 (091e20e, 2023-11-25, custom)"
   xmlns:inkscape="http://www.inkscape.org/namespaces/inkscape"
   xmlns:sodipodi="http://sodipodi.sourceforge.net/DTD/sodipodi-0.dtd"
   xmlns="http://www.w3.org/2000/svg"
   xmlns:svg="http://www.w3.org/2000/svg">
  <defs
     id="defs2" />
  <sodipodi:namedview
     id="namedview2"
     pagecolor="#505050"
     bordercolor="#eeeeee"
     borderopacity="1"
     inkscape:showpageshadow="0"
     inkscape:pageopacity="0"
     inkscape:pagecheckerboard="0"
     inkscape:deskcolor="#505050"
     inkscape:zoom="16.9375"
     inkscape:cx="23.97048"
     inkscape:cy="24"
     inkscape:window-width="1920"
     inkscape:window-height="1009"
     inkscape:window-x="-8"
     inkscape:window-y="-8"
     inkscape:window-maximized="1"
     inkscape:current-layer="svg2" />
  <path
     d="M0 0h48v48h-48z"
     fill="none"
     id="path1" />
  <path
     d="M44 36v-4h-28v-24h4l-6-6-6 6h4v4h-8v4h8v16c0 2.21 1.79 4 4 4h16v4h-4l6 6 6-6h-4v-4h8zm-24-20h12v12h4v-12c0-2.21-1.79-4-4-4h-12v4z"
     id="path2" />
  <path
     style="fill:#ffffff;stroke-width:0.0590406"
     d="M 31.055352,42.981551 28.103764,40.02952 h 1.962878 1.962878 v -2.035916 -2.035917 l -8.428044,-0.01574 -8.428044,-0.01574 -0.433058,-0.158194 c -0.632751,-0.23114 -1.042298,-0.49426 -1.548866,-0.995096 -0.346882,-0.342956 -0.506497,-0.559252 -0.6971,-0.944649 -0.485653,-0.981982 -0.444678,-0.145136 -0.46461,-9.488777 L 12.012008,16 H 8.0281441 4.0442804 V 14.02214 12.04428 H 8.0295203 12.01476 V 10.008176 7.9720714 L 10.066167,7.9565154 8.1175729,7.9409594 11.055317,5.003689 13.99306,2.0664185 16.944648,5.0184491 19.896236,7.9704797 H 17.933358 15.97048 V 19.98524 32 H 29.9631 43.95572 v 1.97786 1.97786 h -3.98524 -3.98524 v 2.036104 2.036105 l 1.948593,0.01556 1.948594,0.01556 -2.937744,2.93727 -2.937743,2.937271 z"
     id="path3" />
  <path
     style="fill:#ffffff;stroke-width:0.0590406"
     d="M 32.02952,21.99262 V 16 H 26.0369 20.04428 v -1.979137 -1.979136 l 6.391144,0.01604 6.391144,0.01604 0.433058,0.158194 c 0.632751,0.23114 1.042298,0.494261 1.548866,0.995096 0.346882,0.342956 0.506497,0.559253 0.6971,0.944649 0.479588,0.969718 0.443722,0.392155 0.464577,7.481397 l 0.01863,6.332103 H 34.009158 32.02952 Z"
     id="path4" />
</svg>
